<?xml version="1.0" encoding="iso-8859-1"?>
<!-- Generator: Adobe Illustrator 19.0.0, SVG Export Plug-In . SVG Version: 6.00 Build 0)  -->
<svg version="1.1" id="Layer_1" xmlns="http://www.w3.org/2000/svg" xmlns:xlink="http://www.w3.org/1999/xlink" x="0px" y="0px"
	 viewBox="0 0 511.999 511.999" style="enable-background:new 0 0 511.999 511.999;" xml:space="preserve">
<g>
	<g>
		<path d="M30.395,180.484l53.415-53.416c6.501,3.271,13.833,5.127,21.594,5.127c6.828,0,13.324-1.436,19.216-4.006l58.405,65.157
			c-4.046,7.053-6.372,15.211-6.372,23.908c0,26.584,21.628,48.213,48.213,48.213s48.212-21.628,48.212-48.213
			c0-3.081-0.303-6.091-0.857-9.013l39.575-22.075c8.582,7.86,20.005,12.665,32.531,12.665c6.835,0,13.337-1.439,19.233-4.014
			l58.378,65.074c-4.039,7.049-6.363,15.202-6.363,23.891c0,26.585,21.628,48.213,48.213,48.213
			c26.584,0,48.213-21.628,48.213-48.213s-21.628-48.212-48.213-48.212c-6.835,0-13.337,1.439-19.233,4.014l-58.378-65.075
			c4.04-7.049,6.363-15.202,6.363-23.891c0-26.584-21.628-48.213-48.213-48.213s-48.212,21.628-48.212,48.213
			c0,3.081,0.303,6.091,0.857,9.012l-39.575,22.075c-8.581-7.86-20.005-12.665-32.531-12.665c-6.828,0-13.324,1.436-19.216,4.006
			l-58.405-65.157c4.046-7.053,6.372-15.211,6.372-23.908c0-26.584-21.628-48.212-48.213-48.212
			c-26.585,0-48.212,21.628-48.212,48.213c0,7.761,1.854,15.093,5.126,21.594l-31.923,31.924V0.186H0v511.627h508.764v-30.395
			H30.395V180.484z M463.787,265.964c9.825,0,17.818,7.992,17.818,17.817c0,9.825-7.993,17.818-17.818,17.818
			s-17.818-7.993-17.818-17.818C445.97,273.956,453.963,265.964,463.787,265.964z M344.327,132.799
			c9.825,0,17.818,7.993,17.818,17.818c0,9.825-7.993,17.817-17.818,17.817c-9.825,0-17.817-7.993-17.817-17.817
			C326.51,140.793,334.502,132.799,344.327,132.799z M224.866,199.435c9.825,0,17.817,7.993,17.817,17.817
			c0,9.825-7.993,17.818-17.817,17.818s-17.818-7.993-17.818-17.818S215.042,199.435,224.866,199.435z M105.405,66.164
			c9.825,0,17.818,7.993,17.818,17.817s-7.993,17.818-17.818,17.818c-9.825,0-17.817-7.993-17.817-17.818
			C87.588,74.156,95.58,66.164,105.405,66.164z"/>
	</g>
</g>
<g>
	<g>
		<rect x="90.202" y="219.674" width="30.395" height="36.748"/>
	</g>
</g>
<g>
	<g>
		<rect x="90.202" y="286.31" width="30.395" height="36.748"/>
	</g>
</g>
<g>
	<g>
		<rect x="90.202" y="153.038" width="30.395" height="36.748"/>
	</g>
</g>
<g>
	<g>
		<rect x="90.202" y="352.946" width="30.395" height="36.748"/>
	</g>
</g>
<g>
	<g>
		<rect x="90.202" y="419.582" width="30.395" height="36.748"/>
	</g>
</g>
<g>
	<g>
		<rect x="329.127" y="219.674" width="30.395" height="36.748"/>
	</g>
</g>
<g>
	<g>
		<rect x="329.127" y="286.31" width="30.395" height="36.748"/>
	</g>
</g>
<g>
	<g>
		<rect x="329.127" y="352.946" width="30.395" height="36.748"/>
	</g>
</g>
<g>
	<g>
		<rect x="329.127" y="419.582" width="30.395" height="36.748"/>
	</g>
</g>
<g>
	<g>
		<rect x="209.665" y="286.31" width="30.395" height="36.748"/>
	</g>
</g>
<g>
	<g>
		<rect x="209.665" y="352.946" width="30.395" height="36.748"/>
	</g>
</g>
<g>
	<g>
		<rect x="209.665" y="419.582" width="30.395" height="36.748"/>
	</g>
</g>
<g>
	<g>
		<rect x="448.59" y="352.946" width="30.395" height="36.748"/>
	</g>
</g>
<g>
	<g>
		<rect x="448.59" y="419.582" width="30.395" height="36.748"/>
	</g>
</g>
<g>
</g>
<g>
</g>
<g>
</g>
<g>
</g>
<g>
</g>
<g>
</g>
<g>
</g>
<g>
</g>
<g>
</g>
<g>
</g>
<g>
</g>
<g>
</g>
<g>
</g>
<g>
</g>
<g>
</g>
</svg>
